<svg width="48" height="48" viewBox="0 0 48 48" fill="none" xmlns="http://www.w3.org/2000/svg">
<path d="M3.41136 23.9986C3.41136 32.1478 8.14723 39.1903 15.0146 42.5276L5.19383 15.6199C4.05148 18.1804 3.41136 21.0139 3.41136 23.9986Z" fill="#464342"/>
<path d="M37.8979 22.9597C37.8979 20.4153 36.984 18.6532 36.2001 17.2817C35.1565 15.5858 34.1783 14.1496 34.1783 12.4537C34.1783 10.5612 35.6136 8.7995 37.6355 8.7995C37.7267 8.7995 37.8133 8.81086 37.9022 8.81595C34.2394 5.46022 29.3593 3.41136 23.9994 3.41136C16.8069 3.41136 10.4789 7.10165 6.79765 12.6911C7.28068 12.7056 7.73589 12.7158 8.12255 12.7158C10.276 12.7158 13.6094 12.4545 13.6094 12.4545C14.7192 12.3891 14.8501 14.0192 13.7414 14.1504C13.7414 14.1504 12.6261 14.2817 11.385 14.3467L18.8824 36.6471L23.3879 23.1344L20.1802 14.3459C19.0716 14.2809 18.0213 14.1496 18.0213 14.1496C16.9119 14.0846 17.0419 12.3883 18.1514 12.4537C18.1514 12.4537 21.5514 12.715 23.5744 12.715C25.7274 12.715 29.0612 12.4537 29.0612 12.4537C30.1718 12.3883 30.3023 14.0184 29.1932 14.1496C29.1932 14.1496 28.0756 14.2809 26.8369 14.3459L34.277 36.4774L36.3305 29.6152C37.2206 26.7675 37.8979 24.7222 37.8979 22.9597Z" fill="#464342"/>
<path d="M24.3606 25.7995L18.1835 43.7491C20.0278 44.2913 21.9784 44.5879 23.9994 44.5879C26.3969 44.5879 28.6961 44.1734 30.8362 43.4208C30.781 43.3327 30.7309 43.2391 30.6897 43.1372L24.3606 25.7995Z" fill="#464342"/>
<path d="M42.0646 14.121C42.1531 14.7768 42.2033 15.4808 42.2033 16.2381C42.2033 18.3273 41.8131 20.6758 40.6378 23.6124L34.3491 41.7947C40.4698 38.2254 44.5867 31.5943 44.5867 23.999C44.5871 20.4196 43.6727 17.0537 42.0646 14.121Z" fill="#464342"/>
<path d="M23.9994 0C10.7665 0 0 10.7657 0 23.9986C0 37.2331 10.7665 47.9984 23.9994 47.9984C37.232 47.9984 48 37.2331 48 23.9986C47.9996 10.7657 37.232 0 23.9994 0ZM23.9994 46.8984C11.3733 46.8984 1.10043 36.6255 1.10043 23.9986C1.10043 11.3725 11.3729 1.10043 23.9994 1.10043C36.6251 1.10043 46.8972 11.3725 46.8972 23.9986C46.8972 36.6255 36.6251 46.8984 23.9994 46.8984Z" fill="#464342"/>
</svg>
