<svg width="48" height="48" viewBox="0 0 60 60" fill="none" xmlns="http://www.w3.org/2000/svg">
<path d="M46.8929 0C45.1854 0 43.7859 1.39958 43.7859 3.10707V17.6907C40.2029 14.2757 35.3604 12.1763 30.014 12.1763C18.9573 12.1763 10 21.1337 10 32.1903C10 43.247 18.9573 52.2043 30.014 52.2043C35.3604 52.2043 40.2029 50.105 43.7859 46.69V47.9216C43.7859 49.6291 45.1854 51.0287 46.8929 51.0287C48.6004 51.0287 50 49.6291 50 47.9216V3.10707C50 1.39958 48.6004 0 46.8929 0Z" fill="url(#paint0_linear_326_3129)"/>
<g opacity="0.12">
<path d="M43.7849 36.557V37.5927C43.7849 40.2239 42.6653 43.3589 40.5659 46.8299C39.4462 48.6773 38.0467 50.6088 36.3952 52.5682C33.9319 55.5073 31.4686 57.9146 30.0131 59.2582C28.5575 57.9146 26.0943 55.5353 23.659 52.6242C22.6793 51.4765 21.8115 50.3568 21.0278 49.2372C20.9438 49.1252 20.8598 49.0132 20.8038 48.9293C19.8241 47.5577 19.0124 46.2141 18.3406 44.9265C18.3126 44.8705 18.2846 44.8145 18.2566 44.7585C16.913 42.1273 16.2412 39.748 16.2412 37.6486V36.613C16.2412 32.5542 17.9207 28.8313 20.6079 26.2281C23.0992 23.8488 26.3742 22.3652 30.0131 22.3652C33.652 22.3652 36.983 23.8208 39.4183 26.2281C39.6702 26.48 39.9221 26.7599 40.174 27.0398C40.286 27.1238 40.342 27.2358 40.426 27.3197C40.4819 27.3757 40.5379 27.4597 40.5939 27.5157C42.5533 29.9789 43.757 33.142 43.7849 36.557Z" fill="black"/>
</g>
<path d="M43.7849 32.5248V33.5604C43.7849 36.1917 42.6653 39.3267 40.5659 42.7977C39.4462 44.6451 38.0467 46.5765 36.3952 48.5359C33.9319 51.4751 31.4686 53.8823 30.0131 55.2259C28.5575 53.8823 26.0943 51.5031 23.659 48.5919C22.6793 47.4443 21.8115 46.3246 21.0278 45.2049C20.9438 45.093 20.8598 44.981 20.8038 44.897C19.8241 43.5255 19.0124 42.1819 18.3406 40.8942C18.3126 40.8383 18.2846 40.7823 18.2566 40.7263C16.913 38.0951 16.2412 35.7158 16.2412 33.6164V32.5807C16.2412 28.522 17.9207 24.7991 20.6079 22.1959C23.0992 19.8166 26.3742 18.333 30.0131 18.333C33.652 18.333 36.983 19.7886 39.4183 22.1959C39.6702 22.4478 39.9221 22.7277 40.174 23.0076C40.286 23.0916 40.342 23.2035 40.426 23.2875C40.4819 23.3435 40.5379 23.4275 40.5939 23.4835C42.5533 25.9467 43.757 29.1098 43.7849 32.5248Z" fill="white"/>
<path d="M29.986 24.2969C25.6193 24.2969 22.0923 27.8238 22.0923 32.1905C22.0923 33.5901 22.4562 34.9337 23.1 36.0813L18.3135 40.8959C18.9573 42.1835 19.797 43.4991 20.7767 44.8987L26.403 39.2724C27.4667 39.8322 28.6984 40.1401 29.986 40.1401C34.3527 40.1401 37.8796 36.6132 37.8796 32.2465C37.8796 27.8798 34.3527 24.2969 29.986 24.2969Z" fill="#3E62F5"/>
<path d="M27.6343 26.676C26.5986 27.1239 25.7869 27.8517 25.255 28.7194C25.0031 29.1393 25.227 29.7271 25.7029 29.8111C25.7309 29.8111 25.7589 29.8111 25.7869 29.8391C26.0948 29.8951 26.3747 29.7551 26.5426 29.4752C26.9345 28.8594 27.4943 28.3555 28.2221 28.0476C29.0059 27.7117 29.8176 27.6837 30.5734 27.8797C30.8533 27.9636 31.1612 27.8797 31.3292 27.6277C31.3572 27.5998 31.3572 27.5718 31.3852 27.5438C31.6651 27.1519 31.4692 26.5641 30.9933 26.4521C29.9296 26.1442 28.726 26.2002 27.6343 26.676Z" fill="white"/>
<defs>
<linearGradient id="paint0_linear_326_3129" x1="21.741" y1="52.6624" x2="51.6988" y2="-1.06449" gradientUnits="userSpaceOnUse">
<stop stop-color="#2AE498"/>
<stop offset="0.0111746" stop-color="#2AE299"/>
<stop offset="0.4845" stop-color="#359DCA"/>
<stop offset="0.8263" stop-color="#3B72E9"/>
<stop offset="1" stop-color="#3E62F5"/>
</linearGradient>
</defs>
</svg>
