<svg width="48" height="48" viewBox="0 0 48 48" fill="none" xmlns="http://www.w3.org/2000/svg">
<path d="M40.9701 7.02895C36.6279 2.68589 30.6272 0 24.0011 0C17.3732 0 11.373 2.68589 7.02987 7.02895C2.68592 11.372 0 17.3731 0 24C0 30.6269 2.68592 36.628 7.02901 40.9711C11.3721 45.315 17.3732 48 24.0011 48C30.6281 48 36.6292 45.3128 40.971 40.9711C45.3141 36.6271 48 30.6269 48 24C48 17.3731 45.3132 11.372 40.9701 7.02895ZM40.1781 40.1778C36.0382 44.3177 30.3181 46.8787 24.0002 46.8787C17.6823 46.8787 11.9614 44.3177 7.82101 40.1778C3.68065 36.0379 1.11999 30.3179 1.11999 24C1.11999 17.6821 3.68108 11.9621 7.82101 7.82223C11.9609 3.68234 17.681 1.12084 23.9994 1.12084C30.3173 1.12084 36.0373 3.68191 40.1773 7.8218C44.3172 11.9617 46.8783 17.6817 46.8783 23.9996C46.8791 30.3179 44.3181 36.0379 40.1781 40.1778Z" fill="#35495C"/>
<path d="M44.6461 23.7998C44.538 12.489 35.337 3.35306 24.0011 3.35306C12.6638 3.35306 3.462 12.4898 3.35611 23.8007L12.8231 14.3338L15.998 17.5087L9.07014 24.4369H38.9325L32.0042 17.5091L35.1791 14.3342L44.6461 23.7998ZM24.0002 20.2518L15.203 11.0208H21.0492V6.4711C21.0492 5.29 22.377 4.32196 24.0002 4.32196C25.6234 4.32196 26.9513 5.28914 26.9513 6.4711V11.0212H32.7975L24.0002 20.2518Z" fill="#35495C"/>
<path d="M26.566 35.6199C26.0968 35.3147 25.5028 35.041 24.7862 34.803C24.2382 34.614 23.7871 34.4358 23.435 34.2641C23.086 34.094 22.8281 33.9051 22.6633 33.7062C22.4941 33.5035 22.4153 33.2603 22.4153 32.9814C22.4153 32.7584 22.4825 32.5462 22.6262 32.3452C22.7674 32.1451 22.9882 31.978 23.2883 31.8524C23.5913 31.7245 23.977 31.6552 24.456 31.6535C24.8421 31.6556 25.1942 31.6866 25.5132 31.7417C25.8283 31.7986 26.1072 31.8679 26.3461 31.9466C26.588 32.0284 26.7843 32.1055 26.9379 32.1786L27.4708 30.5718C27.1488 30.41 26.7447 30.2757 26.2548 30.1668C25.8386 30.0747 25.363 30.0217 24.8219 30.0037V28.3409H23.3567V30.0867C23.1217 30.1246 22.8966 30.1758 22.6835 30.2378C22.1446 30.3966 21.6814 30.6179 21.2984 30.9058C20.9183 31.1929 20.6243 31.5287 20.4224 31.9139C20.2193 32.2987 20.1194 32.7231 20.1155 33.1789C20.1185 33.7071 20.2567 34.172 20.5296 34.574C20.8025 34.976 21.1916 35.3251 21.6935 35.6242C22.1937 35.9221 22.7902 36.1791 23.4807 36.3951C23.9989 36.5613 24.4207 36.7343 24.7427 36.9121C25.0647 37.089 25.3005 37.284 25.4478 37.497C25.598 37.7101 25.672 37.9572 25.6686 38.2331C25.6686 38.5361 25.5795 38.7991 25.4056 39.0259C25.2334 39.2498 24.9794 39.4258 24.6454 39.5511C24.3114 39.6772 23.9033 39.7392 23.4256 39.743C23.0365 39.74 22.6594 39.7069 22.2914 39.644C21.9264 39.5782 21.5833 39.4929 21.2674 39.3871C20.9484 39.2812 20.6695 39.1662 20.4272 39.0371L19.9124 40.7111C20.1452 40.8389 20.4362 40.9538 20.7922 41.0601C21.1481 41.1673 21.5403 41.2521 21.969 41.3171C22.3951 41.38 22.8329 41.4122 23.2779 41.4161L23.3558 41.4153V43.1344H24.821V41.2775C25.007 41.2418 25.1839 41.1987 25.3522 41.1488C25.9402 40.9719 26.4283 40.7309 26.814 40.4218C27.2031 40.1158 27.491 39.7607 27.6817 39.3608C27.8715 38.9609 27.9667 38.5378 27.9667 38.0867C27.9667 37.5586 27.8535 37.0916 27.6206 36.69C27.3873 36.2819 27.0369 35.9268 26.566 35.6199Z" fill="#35495C"/>
</svg>
