<svg xmlns="http://www.w3.org/2000/svg" width="40" height="40" viewBox="0 0 40 40" fill="none">
<path d="M20 38.5C30.2173 38.5 38.5 30.2173 38.5 20C38.5 9.78273 30.2173 1.5 20 1.5C9.78273 1.5 1.5 9.78273 1.5 20C1.5 30.2173 9.78273 38.5 20 38.5Z" stroke="#175CD3" stroke-width="3"/>
<path d="M15.75 28.25C22.6536 28.25 28.25 22.6536 28.25 15.75C28.25 8.84644 22.6536 3.25 15.75 3.25C8.84644 3.25 3.25 8.84644 3.25 15.75C3.25 22.6536 8.84644 28.25 15.75 28.25Z" stroke="#175CD3" stroke-width="3"/>
<path d="M20 26.5C23.5899 26.5 26.5 23.5899 26.5 20C26.5 16.4101 23.5899 13.5 20 13.5C16.4101 13.5 13.5 16.4101 13.5 20C13.5 23.5899 16.4101 26.5 20 26.5Z" stroke="#175CD3" stroke-width="3"/>
</svg>