<svg width="22" height="23" viewBox="0 0 22 23" fill="none" xmlns="http://www.w3.org/2000/svg">
<g clip-path="url(#clip0_196_9)">
<path d="M3.82544 4.24316H4.78467" stroke="white" stroke-linecap="round" stroke-linejoin="round"/>
<path d="M7.37878 4.24316H16.1626" stroke="white" stroke-linecap="round" stroke-linejoin="round"/>
<path d="M7.13916 18.2003C7.13916 17.2885 7.13916 16.8566 7.42693 16.5687C7.7147 16.2808 8.14635 16.2808 9.05762 16.2808H12.8946C13.8059 16.2808 14.2375 16.2808 14.5253 16.5687C14.8131 16.8566 14.8131 17.2885 14.8131 18.2003V19.1601C14.8131 20.5038 14.8131 21.1757 14.3814 21.6076C13.9498 22.0395 13.2783 22.0395 11.9354 22.0395H10.0169C8.67393 22.0395 8.00247 22.0395 7.57081 21.6076C7.13916 21.1757 7.13916 20.5038 7.13916 19.1601V18.2003Z" stroke="white" stroke-width="1.5" stroke-linecap="round"/>
<path d="M12.8946 15.8011V15.3212C12.8946 14.2654 12.0313 13.4016 10.9761 13.4016C9.92093 13.4016 9.05762 14.2654 9.05762 15.3212V15.8011" stroke="white" stroke-width="1.5" stroke-linecap="round"/>
<path d="M4.06954 20.9635C2.34293 20.7715 1 19.3318 1 17.5562V4.45521C1 2.53565 2.53477 1 4.45324 1H17.5468C19.4652 1 21 2.53565 21 4.45521V17.5562C21 19.3318 19.6571 20.7715 17.9305 20.9635" stroke="white" stroke-width="1.5" stroke-miterlimit="10" stroke-linecap="round"/>
<path d="M1.19519 6.99854H20.7577" stroke="white" stroke-width="1.5" stroke-miterlimit="10" stroke-linecap="round"/>
</g>
<defs>
<clipPath id="clip0_196_9">
<rect width="22" height="23" fill="white"/>
</clipPath>
</defs>
</svg>
