<svg width="48" height="48" viewBox="0 0 48 48" fill="none" xmlns="http://www.w3.org/2000/svg">
<path d="M47.4375 24.0066C47.4357 30.2215 44.9657 36.1812 40.5705 40.5752C36.1753 44.9691 30.2149 47.4375 24 47.4375C17.7851 47.4375 11.8247 44.9691 7.42953 40.5752C3.03434 36.1812 0.564259 30.2215 0.562501 24.0066C0.56163 20.9282 1.16722 17.8798 2.34467 15.0355C3.52213 12.1911 5.24838 9.6066 7.42484 7.42953C9.6013 5.25245 12.1853 3.52547 15.0293 2.34721C17.8733 1.16895 20.9216 0.5625 24 0.5625C27.0784 0.5625 30.1267 1.16895 32.9707 2.34721C35.8147 3.52547 38.3987 5.25245 40.5752 7.42953C42.7516 9.6066 44.4779 12.1911 45.6553 15.0355C46.8328 17.8798 47.4384 20.9282 47.4375 24.0066Z" fill="white"/>
<path d="M21.9853 0.0306577C15.7047 0.678376 10.2125 3.39179 6.2357 7.81203C2.86328 11.5495 0.918671 15.7422 0.156593 20.8539C-0.0536353 22.3069 -0.0536353 25.6768 0.165353 27.1561C0.927431 32.4253 3.13483 36.9506 6.73499 40.6619C13.0243 47.1391 22.1079 49.5374 30.7974 47.0165C34.7216 45.8786 38.3131 43.6991 41.265 40.6619C44.8827 36.9331 47.1076 32.3553 47.8434 27.1123C48.0536 25.598 48.0536 22.3157 47.8346 20.8539C47.0375 15.3833 44.7601 10.788 40.9935 7.02427C37.2707 3.30426 32.7332 1.02849 27.3724 0.196964C26.4877 0.0569166 22.8175 -0.0568718 21.9853 0.0306577ZM27.3374 1.28233C36.3772 2.63904 43.744 9.16874 46.1616 17.9655C48.1412 25.1779 46.3981 33.0118 41.5366 38.7975C37.7875 43.244 32.304 46.1587 26.4789 46.7977C25.384 46.9202 22.616 46.9202 21.5211 46.7977C20.2947 46.6664 18.5603 46.3163 17.4216 45.9662C6.2795 42.5963 -0.552928 31.5851 1.36541 20.1274C1.72455 17.948 2.37275 15.9785 3.41513 13.8516C6.13058 8.32846 10.9483 4.13579 16.7997 2.21014C18.6655 1.59744 20.0757 1.31734 22.4233 1.08101C23.2642 0.993483 26.2424 1.11602 27.3374 1.28233Z" fill="#D84800"/>
<path d="M22.5109 3.47932C14.2244 4.09203 7.07662 9.6414 4.47504 17.484C3.31879 20.994 3.12608 24.9153 3.94947 28.5828C5.5875 35.9003 11.4038 41.9398 18.6479 43.8392C20.6889 44.3731 21.5999 44.4782 24 44.4782C26.4001 44.4782 27.3111 44.3731 29.3521 43.8392C34.1523 42.5788 38.4445 39.4627 41.2387 35.2088C42.9293 32.6354 43.998 29.7032 44.4184 26.4996C44.5936 25.1341 44.5498 22.0093 44.3308 20.7226C43.9629 18.6132 43.3848 16.8013 42.4475 14.9019C38.7598 7.40064 30.8412 2.86661 22.5109 3.47932ZM29.6937 7.77702C32.0588 8.19716 34.1786 10.0615 35.0195 12.4774C35.2472 13.1426 35.291 13.3877 35.3261 14.4205C35.3611 15.4271 35.3348 15.7247 35.1772 16.3462C34.6341 18.5344 33.1011 20.3463 31.0865 21.1865C30.5346 21.4229 29.9127 21.6067 29.9127 21.5454C29.9127 21.5279 30.0441 21.2391 30.2105 20.9152C31.4193 18.5169 31.4193 15.5759 30.2105 13.1863C29.247 11.2607 27.2848 9.58013 25.2701 8.95867C25.0074 8.87114 24.727 8.78361 24.657 8.75735C24.473 8.69608 25.3315 8.26719 26.1899 7.98709C27.2936 7.62822 28.4236 7.5582 29.6937 7.77702ZM24.3504 10.2716C27.0658 11.0069 29.0893 13.1863 29.5623 15.8823C29.72 16.7663 29.6324 18.3156 29.3871 19.1033C28.7301 21.169 27.46 22.6133 25.5066 23.5236C24.5519 23.97 23.7372 24.1363 22.5722 24.1363C19.4626 24.1363 16.8785 22.2369 15.8712 19.2084C15.6259 18.4731 15.5996 18.2981 15.5996 17.1777C15.5909 16.1448 15.6259 15.8472 15.7923 15.252C16.5719 12.5736 18.7268 10.6305 21.486 10.1316C22.0729 10.0178 23.7372 10.1053 24.3504 10.2716ZM35.2998 22.2982C37.9364 23.1297 39.5394 25.1429 40.2489 28.5128C40.4329 29.4143 40.6606 31.9089 40.573 32.1365C40.5205 32.259 40.3102 32.2765 38.9788 32.2765C38.1379 32.2765 37.4459 32.2503 37.4459 32.224C37.4459 31.8564 37.1218 30.1583 36.9203 29.4843C36.0531 26.5609 34.161 24.3551 31.9537 23.6986C31.7434 23.6374 31.577 23.5498 31.577 23.5148C31.577 23.4711 31.8573 23.1209 32.2077 22.7271L32.8384 22.0093L33.7669 22.0618C34.3538 22.0881 34.9056 22.1756 35.2998 22.2982ZM20.3823 26.7622L22.6423 28.9942L23.4482 28.2064C23.8949 27.7775 25.0512 26.6484 26.0147 25.7031L27.7666 23.9787L28.4236 24.0575C30.2368 24.2851 31.9624 25.0729 33.215 26.2633C34.7041 27.6725 35.5538 29.4231 35.913 31.7951C36.0443 32.6704 36.0969 35.2438 35.9918 35.769L35.9392 36.0403H22.6335C13.2258 36.0403 9.31906 36.0141 9.28402 35.944C9.16139 35.7602 9.12635 33.3444 9.23146 32.3816C9.74827 27.4712 12.4199 24.5389 16.8172 24.0663C17.6669 23.9787 17.299 23.7074 20.3823 26.7622Z" fill="#D84800"/>
</svg>
