 <svg xmlns="http://www.w3.org/2000/svg" width="43" height="43" viewBox="0 0 43 43" fill="none">
<path d="M0 3C0 1.34314 1.34315 0 3 0H40C41.6569 0 43 1.34315 43 3V40C43 41.6569 41.6569 43 40 43H3C1.34314 43 0 41.6569 0 40V3Z" fill="#3747D6"/>
<path d="M12.3909 13.663H13.5419" stroke="white" stroke-width="1.5" stroke-linecap="round" stroke-linejoin="round"/>
<path d="M16.6548 13.663H27.1953" stroke="white" stroke-width="1.5" stroke-linecap="round" stroke-linejoin="round"/>
<path d="M16.3669 29.4295C16.3669 28.3995 16.3669 27.9116 16.7123 27.5864C17.0576 27.2611 17.5756 27.2611 18.6691 27.2611H23.2734C24.3669 27.2611 24.8849 27.2611 25.2303 27.5864C25.5756 27.9116 25.5756 28.3995 25.5756 29.4295V30.5137C25.5756 32.0315 25.5756 32.7905 25.0576 33.2783C24.5396 33.7662 23.7338 33.7662 22.1223 33.7662H19.8202C18.2087 33.7662 17.4029 33.7662 16.8849 33.2783C16.3669 32.7905 16.3669 32.0315 16.3669 30.5137V29.4295Z" stroke="#FFE5D6" stroke-width="1.5" stroke-linecap="round"/>
<path d="M23.2733 26.7191V26.177C23.2733 24.9844 22.2373 24.0087 20.9711 24.0087C19.7049 24.0087 18.6689 24.9844 18.6689 26.177V26.7191" stroke="#FFE5D6" stroke-width="1.5" stroke-linecap="round"/>
<path d="M12.6835 32.5511C10.6115 32.3343 9 30.708 9 28.7022V13.9031C9 11.7347 10.8417 10 13.1439 10H28.8561C31.1583 10 33 11.7347 33 13.9031V28.7022C33 30.708 31.3885 32.3343 29.3165 32.5511" stroke="white" stroke-width="2" stroke-miterlimit="10" stroke-linecap="round"/>
<path d="M9.23413 16.7756H32.7091" stroke="white" stroke-width="1.5" stroke-miterlimit="10" stroke-linecap="round"/>
</svg>
