<svg width="22" height="23" viewBox="0 0 22 23" fill="none" xmlns="http://www.w3.org/2000/svg">
<path d="M3.8255 4.24322H4.78473" stroke="#9DA1A8" stroke-linecap="round" stroke-linejoin="round"/>
<path d="M7.37878 4.24324H16.1626" stroke="#9DA1A8" stroke-linecap="round" stroke-linejoin="round"/>
<path d="M7.1391 18.2003C7.1391 17.2885 7.1391 16.8566 7.42687 16.5687C7.71464 16.2808 8.14629 16.2808 9.05756 16.2808H12.8945C13.8058 16.2808 14.2374 16.2808 14.5252 16.5687C14.813 16.8566 14.813 17.2885 14.813 18.2003V19.1601C14.813 20.5038 14.813 21.1757 14.3813 21.6076C13.9497 22.0395 13.2782 22.0395 11.9353 22.0395H10.0168C8.67387 22.0395 8.00241 22.0395 7.57075 21.6076C7.1391 21.1757 7.1391 20.5038 7.1391 19.1601V18.2003Z" stroke="#9DA1A8" stroke-width="1.5" stroke-linecap="round"/>
<path d="M12.8945 15.801V15.3211C12.8945 14.2653 12.0312 13.4015 10.976 13.4015C9.92087 13.4015 9.05756 14.2653 9.05756 15.3211V15.801" stroke="#9DA1A8" stroke-width="1.5" stroke-linecap="round"/>
<path d="M4.06954 20.9635C2.34293 20.7715 1 19.3318 1 17.5562V4.45521C1 2.53565 2.53477 1 4.45324 1H17.5468C19.4652 1 21 2.53565 21 4.45521V17.5562C21 19.3318 19.6571 20.7715 17.9305 20.9635" stroke="#9DA1A8" stroke-width="1.5" stroke-miterlimit="10" stroke-linecap="round"/>
<path d="M1.19519 6.99864H20.7577" stroke="#9DA1A8" stroke-width="1.5" stroke-miterlimit="10" stroke-linecap="round"/>
</svg>
