<svg class="droip-svg" data-droip="dpau9ozy" width="48" height="48" viewBox="0 0 74 97" fill="none" xmlns="http://www.w3.org/2000/svg">
<path fill-rule="evenodd" clip-rule="evenodd" d="M20.9702 59.9826C18.6012 59.8292 16.8233 58.0513 16.6699 55.6823V45.8906C16.6699 43.5216 18.6012 41.5903 20.9702 41.5903C23.3391 41.5903 25.2704 43.5216 25.2704 45.8906V55.6778C25.2704 58.0468 23.4926 59.9781 21.2635 59.9781C21.1236 59.9826 20.9702 59.9826 20.9702 59.9826Z" fill="#0052F7"></path>
<path fill-rule="evenodd" clip-rule="evenodd" d="M51.811 59.9826C49.442 59.9826 47.5107 58.2047 47.5107 55.8358C47.5107 55.8358 47.5107 55.8358 47.5107 55.6823V45.8906C47.5107 43.5216 49.442 41.5903 51.811 41.5903C54.18 41.5903 56.1112 43.5216 56.1112 45.8906V55.6778C56.1067 58.0513 54.1755 59.9826 51.811 59.9826Z" fill="#0052F7"></path>
<path fill-rule="evenodd" clip-rule="evenodd" d="M10.9478 38.5409C12.8668 34.5373 16.7098 31.9802 21.1859 31.8146C27.581 31.9802 32.7049 37.4109 32.5539 43.8158V65.4316C32.8705 67.8329 35.111 69.4353 37.5122 69.1041C39.4312 68.7875 41.0337 67.3507 41.1847 65.4316V43.8304C41.0191 37.4353 46.143 31.9948 52.5527 31.8292C56.8778 31.8292 60.7159 34.2304 62.4693 38.0733C69.6681 52.3151 64.0717 69.596 49.83 76.8046C35.5883 84.0131 18.3073 78.3924 11.1134 64.1507C7.10977 56.1482 6.95878 46.5482 10.9478 38.5409ZM29.0324 10.0575H45.1932V16.3017C42.4705 15.6636 39.7527 15.3373 36.879 15.3373C34.1563 15.3373 31.4385 15.6539 28.8815 16.1361L29.0324 10.0575ZM73.0385 54.3802C73.0385 53.4158 73.2041 52.6268 73.2041 51.4919C73.2041 38.3705 66.1612 26.3692 54.6422 19.9692V10.0575H61.6851C64.4078 10.0575 66.4924 7.97289 66.4924 5.25021C66.4924 2.52753 64.4078 0.45752 61.6851 0.45752H12.5503C9.82758 0.623121 7.75757 2.69314 7.75757 5.41582C7.75757 8.13849 9.84219 10.2231 12.5649 10.2231H19.6078V19.9887C2.15148 29.5741 -4.40925 51.5065 5.19075 68.9434C5.67294 69.7421 5.98953 70.3802 6.47659 71.179C20.0802 94.066 56.5612 96.3017 68.8839 96.4575C70.0041 96.4575 70.9685 95.9753 71.9232 95.3373C72.7219 94.5385 73.0434 93.4183 73.0434 92.298C73.0385 92.3126 73.0385 54.3802 73.0385 54.3802Z" fill="#0052F7"></path>
</svg>